<?xml version="1.0" encoding="iso-8859-1"?>
<!-- Generator: Adobe Illustrator 19.0.0, SVG Export Plug-In . SVG Version: 6.00 Build 0)  -->
<svg version="1.1" id="Capa_1" xmlns="http://www.w3.org/2000/svg" xmlns:xlink="http://www.w3.org/1999/xlink" x="0px" y="0px"
	 viewBox="0 0 368 368" style="enable-background:new 0 0 368 368;" xml:space="preserve">
<path style="fill:#CCE4FF;" d="M232,108l-48-36l-48,36v76h96V108z M312,136c0,49.52-28.08,92.4-69.12,113.68h-0.08L184,360
	l-58.8-110.32h-0.08C84.08,228.4,56,185.52,56,136C56,65.28,113.28,8,184,8S312,65.28,312,136z"/>
<g>
	<path style="fill:#007AFF;" d="M119.32,255.664l57.624,108.104c1.392,2.6,4.096,4.232,7.056,4.232c2.96,0,5.664-1.632,7.056-4.24
		l57.624-108.104C292.736,231.84,320,186.208,320,136C320,61.008,258.992,0,184,0S48,61.008,48,136
		C48,186.208,75.264,231.84,119.32,255.664z M184,16c66.168,0,120,53.832,120,120c0,44.792-24.584,85.448-64.208,106.272
		c-1.704,0.688-3.152,1.968-4.048,3.648L184,342.992l-51.744-97.072c-0.84-1.592-2.208-2.816-3.816-3.528
		C88.68,221.608,64,180.88,64,136C64,69.832,117.832,16,184,16z"/>
	<path style="fill:#007AFF;" d="M120.008,128c1.664,0,3.352-0.52,4.792-1.6l3.2-2.4v60c0,4.416,3.584,8,8,8h96c4.416,0,8-3.584,8-8
		v-60l3.2,2.4c1.44,1.08,3.128,1.6,4.792,1.6c2.432,0,4.832-1.104,6.408-3.2c2.656-3.536,1.936-8.552-1.6-11.2l-16-12l-48-36
		c-2.84-2.136-6.76-2.136-9.6,0l-48,36l-16,12c-3.536,2.648-4.248,7.664-1.6,11.2C115.168,126.896,117.576,128,120.008,128z
		 M144,112l40-30l40,30v64h-80V112z"/>
</g>
<g>
</g>
<g>
</g>
<g>
</g>
<g>
</g>
<g>
</g>
<g>
</g>
<g>
</g>
<g>
</g>
<g>
</g>
<g>
</g>
<g>
</g>
<g>
</g>
<g>
</g>
<g>
</g>
<g>
</g>
</svg>
