<?xml version="1.0" encoding="UTF-8"?>
<!DOCTYPE svg PUBLIC "-//W3C//DTD SVG 1.1//EN" "http://www.w3.org/Graphics/SVG/1.1/DTD/svg11.dtd">
<!-- Creator: CorelDRAW 2018 (64-Bit) -->
<svg xmlns="http://www.w3.org/2000/svg" xml:space="preserve" width="210mm" height="297mm" version="1.1" style="shape-rendering:geometricPrecision; text-rendering:geometricPrecision; image-rendering:optimizeQuality; fill-rule:evenodd; clip-rule:evenodd"
viewBox="0 0 21000 29700"
 xmlns:xlink="http://www.w3.org/1999/xlink">
 <defs>
  <style type="text/css">
   <![CDATA[
    .fil0 {fill:#898989}
    .fil1 {fill:#47BED7}
    .fil2 {fill:#898989;fill-rule:nonzero}
    .fil3 {fill:#47BED7;fill-rule:nonzero}
   ]]>
  </style>
 </defs>
 <g id="Layer_x0020_1">
  <metadata id="CorelCorpID_0Corel-Layer"/>
  <g id="_2572504535184">
   <path class="fil0" d="M11291.79 9310.65c-461.39,-433.29 -396.71,-695.66 -955.84,-1088.56 -1324.16,-930.53 -3437.34,-815.07 -4059.69,-1746.04 -175.89,901.11 454.21,1231.53 708.83,1785.4 -484.21,692.88 -965.94,1183.83 -869.5,2477.55 67.6,908.43 587.37,1594.72 1165.09,2029.33 1698.33,1278.06 2140.69,-230.91 4011.11,2392.68 4777.89,-2447.55 3374.56,7353.03 -4131.54,7794.52 150.14,-504.12 -32.63,-280.96 530.31,-588.99 1359.42,-743.95 2412.57,-1840.71 2986.63,-3314.57 743.52,-1908.6 262.38,-4692.13 -1329.86,-5045.09 423.34,941.21 868.92,1317.43 802.34,2798.46 -111.07,2474.62 -1505.76,4496.2 -3628.31,5515.25l-961.54 406.22c-190.82,105.95 -169.46,97.02 -284.91,196.38l877.11 18c76.53,740.15 -102.72,1052.71 791.8,1061.64 1425.13,14.34 3176.58,-513.63 4356.9,-1094.13 6726.15,-3308.86 6081.85,-10067.35 2718.41,-10479.86 -1534.3,-188.18 -1949,461.82 -2727.34,936.67 -526.94,-292.37 -570.26,-534.4 -1264.6,-736.63 -563.53,-164.04 -1144.17,-179.41 -1653.41,-345.06 -2846.45,-925.84 -977.2,-5613.88 2037.09,-2767.57 386.32,364.8 511.28,755.22 880.92,990.23 239.11,-230.48 1858.12,-2425.9 3219.16,-1869.98 525.18,214.52 1003.84,922.77 1017.59,1732.57 15.51,913.55 -357.93,1205.63 -855.16,1733.16 248.32,280.81 519.62,401.39 954.08,462.41 33.37,-182.92 366.42,-515.09 546.99,-900.24 852.39,-1818.32 -510.84,-3107.51 -631.57,-3526.75 532.5,-478.65 719.96,-762.97 790.49,-1577.17 -378.71,92.78 -851.36,487 -1293.87,631.14 -2735.53,891.01 -1964.51,88.67 -3747.71,2119.03z"/>
   <path class="fil1" d="M11291.79 8652.59c767.51,-713.8 1054.76,-1064.85 2509.74,-1452.05 1022.28,-272.03 2299.17,-439.87 2436.14,-1503.12 -2840.02,1136.85 -7227.34,1348.59 -9897.17,-0.59 66.43,1429.37 2397.5,1193.49 3853.07,2061.53 483.04,287.98 708.1,657.03 1098.22,894.23z"/>
   <path class="fil2" d="M13319.34 10906.57c-231.66,0 -418.05,-187.55 -418.05,-418.52 0,-230.97 186.39,-418.54 418.05,-418.54 231.14,0 418.6,187.57 418.6,418.54 0,230.97 -187.46,418.52 -418.6,418.52zm0 -1455.68c-571.96,0 -1037.41,465.62 -1037.41,1037.16 0,572.27 465.45,1037.9 1037.41,1037.9 571.98,0 1037.42,-465.63 1037.42,-1037.9l0 -1037.16 -1037.42 0z"/>
   <path class="fil2" d="M9201.06 10984.26c231.67,0 418.06,-187.56 418.06,-418.53 0,-230.97 -186.39,-418.54 -418.06,-418.54 -231.13,0 -418.6,187.57 -418.6,418.54 0,230.97 187.47,418.53 418.6,418.53zm0 -1455.69c571.96,0 1037.42,465.63 1037.42,1037.16 0,572.28 -465.46,1037.9 -1037.42,1037.9 -571.97,0 -1037.41,-465.62 -1037.41,-1037.9l0 -1037.16 1037.41 0z"/>
   <path class="fil3" d="M6075.66 12905.58c-2057.76,2305.56 -1595.41,4830.45 -1286.75,7684.6 72.58,671.1 -267.02,1360.47 -187.77,2069.46l2267.63 -1252.18 1522.36 -1556.99c1066.24,-1124.97 1415.13,-2676.78 933.13,-4152 -99.94,-308.29 -231.48,-596.27 -392.82,-864.02l-228.45 2288.44 -576.18 -57.45 291.12 -2917.16c-280.41,-300.57 -605.69,-556.7 -964.96,-760.33l-477.02 4780.04 -576.25 -57.51 497.31 -4983.08c-241.23,-92.81 -493.97,-163.49 -756.62,-210.62 -29.85,-5.32 -51.33,-9.86 -64.73,-11.2z"/>
   <path class="fil2" d="M11241.11 11439.55c149.57,0 294.5,12.78 433.58,35.92l-432.39 773.25 -432.42 -774.41c139.17,-21.98 282.94,-34.76 431.23,-34.76z"/>
  </g>
 </g>
</svg>
